<svg width="292" height="490" viewBox="0 0 292 490" fill="none" xmlns="http://www.w3.org/2000/svg">
<path d="M12.53 486.563L149.402 436.563C152.196 435.54 154.054 432.888 154.054 429.918V4L7.90609 51.2314C4.98031 52.1746 3 54.8964 3 57.9607V479.918C3 484.836 7.90139 488.252 12.53 486.563Z" stroke="#B3B6BA" stroke-width="5" stroke-miterlimit="10"/>
<path d="M289.186 274.567L289.257 61.6612C289.049 58.0289 286.262 54.7349 282.344 53.4756L153.489 4L153.122 227.986C153.273 231.713 156.14 235.11 160.181 236.346L277.284 282.311C283.499 284.214 289.516 280.3 289.186 274.567Z" stroke="#B3B6BA" stroke-width="5" stroke-miterlimit="10"/>
<path d="M167.273 389.69L62.5091 351.138C60.3722 350.349 58.9459 348.305 58.9459 346.016V119.485C58.9459 115.782 62.5419 113.155 66.049 114.297L170.813 148.403C173.053 149.132 174.568 151.227 174.568 153.591V384.568C174.568 388.36 170.813 390.992 167.273 389.69Z" stroke="#B3B6BA" stroke-width="5" stroke-miterlimit="10"/>
<path d="M289.186 439.593L289.257 332.203C289.049 328.562 286.262 325.26 282.343 323.998L153.489 274.405L153.122 392.897C153.273 396.632 156.14 400.038 160.181 401.276L277.288 447.351C283.503 449.258 289.521 445.335 289.191 439.588L289.186 439.593Z" stroke="#B3B6BA" stroke-width="5" stroke-miterlimit="10"/>
<path d="M112.862 412.996L217.626 374.465C219.763 373.676 221.189 371.633 221.189 369.345V48.6169C221.189 44.9159 217.593 42.2904 214.086 43.4317L109.322 77.5204C107.083 78.2484 105.568 80.3431 105.568 82.7056V407.882C105.568 411.672 109.322 414.302 112.862 413.001V412.996Z" stroke="#B3B6BA" stroke-width="5" stroke-miterlimit="10"/>
</svg>
