<svg width="145" height="48" viewBox="0 0 145 48" fill="none" xmlns="http://www.w3.org/2000/svg">
<path d="M0.958719 47.9565L14.7311 42.9873C15.0123 42.8856 15.1995 42.6221 15.1995 42.3273V0L0.493637 4.69377C0.199321 4.78791 0 5.05787 0 5.36246V47.2959C0 47.7844 0.493086 48.1247 0.958719 47.9565Z" fill="#041D38"/>
<path d="M28.8193 26.9248L28.8265 5.79474C28.8056 5.43389 28.5261 5.10712 28.1324 4.98269L15.1996 0.0725098L15.1622 22.3019C15.1771 22.672 15.4648 23.009 15.8706 23.1318L27.6245 27.6936C28.2483 27.8824 28.8523 27.494 28.8193 26.9248Z" fill="white"/>
<path d="M16.5696 38.3238L5.96488 34.4978C5.74854 34.4199 5.60413 34.2165 5.60413 33.9893V11.5083C5.60413 11.1409 5.96817 10.8802 6.32289 10.9932L16.9276 14.3778C17.1544 14.4503 17.3076 14.658 17.3076 14.8928V37.8153C17.3076 38.1913 16.9276 38.4531 16.569 38.3238H16.5696Z" fill="white"/>
<path d="M28.8193 43.2887L28.8265 32.6562C28.8056 32.2954 28.5261 31.9686 28.1324 31.8442L15.1996 26.934L15.1622 38.6657C15.1771 39.0358 15.4648 39.3728 15.8706 39.4957L27.6245 44.0574C28.2483 44.2462 28.8523 43.8578 28.8193 43.2887Z" fill="#041D38"/>
<path d="M11.0429 40.6907L21.6476 36.8647C21.8639 36.7868 22.0084 36.5834 22.0084 36.3562V4.51035C22.0084 4.14301 21.6443 3.88225 21.2896 3.99532L10.6849 7.37985C10.4581 7.45235 10.3049 7.6601 10.3049 7.89489V40.1827C10.3049 40.5587 10.6849 40.8206 11.0435 40.6913L11.0429 40.6907Z" fill="#B3B6BA"/>
<path d="M37.2249 9.7352H48.3947C50.657 9.7352 52.2594 10.2576 53.2019 11.3023C54.3212 12.4285 54.8808 13.7054 54.8808 15.1334V18.6163C54.8808 20.915 53.3725 22.6389 50.3563 23.788L37.2073 30.0044V26.1911C45.4902 22.1048 50.0441 19.8412 50.8693 19.3999C51.1401 19.2145 51.2759 18.8428 51.2759 18.2854V15.4643C51.2759 14.5127 50.9163 13.8739 50.198 13.549C49.9861 13.4212 49.6968 13.3576 49.332 13.3576H40.8834L40.901 23.4748L37.2073 25.1983L37.2249 9.7352ZM40.8834 29.2209V34.7062H37.2073V30.9972L40.8834 29.2209ZM51.523 24.1536C53.7615 25.2914 54.8808 26.8525 54.8808 28.838V34.7062H51.2575V29.1511C51.2575 28.3849 50.8979 27.8396 50.1795 27.5143L47.3695 26.1911L51.523 24.1536Z" fill="#041D38"/>
<path d="M63.6297 9.75256H70.646C72.8608 9.75256 74.5344 10.8904 75.6655 13.1657C75.9363 13.8392 76.0722 14.6345 76.0722 15.5514V19.6784C73.6921 20.7816 72.4669 21.3326 72.3961 21.3326V15.0113C72.3961 14.2568 71.9248 13.7115 70.9823 13.3745C70.8055 13.3281 70.6288 13.3047 70.4521 13.3047H64.0363C62.8344 13.3047 62.1627 13.9839 62.0216 15.3422V26.3301C60.7251 26.7715 59.5237 27.6885 58.4163 29.0814V15.1508C58.4163 12.8638 59.6182 11.175 62.0216 10.0835C62.5988 9.86301 63.1351 9.75256 63.6297 9.75256ZM76.0722 20.549V24.4148L64.8492 29.7433C62.9993 30.5559 62.0743 31.2177 62.0743 31.7284C62.0392 31.9488 62.0211 32.158 62.0211 32.3551V34.7058H58.4158V31.9891C58.4158 29.6207 60.0239 27.8214 63.2406 26.5909L76.0717 20.5486L76.0722 20.549ZM76.0722 25.3378V34.7062H72.3961V27.1141L76.0722 25.3378Z" fill="#041D38"/>
<path d="M79.6247 9.77011L90.812 15.4993C92.308 16.5791 93.0567 17.9837 93.0567 19.7133V34.7064H89.6809V19.9745C89.6457 19.0688 88.9973 18.3666 87.7369 17.8672L79.6247 13.7229V9.77011ZM79.6247 14.6109L83.1596 16.3175V34.706H79.6247V14.6109ZM102.565 9.75235V13.7922L93.6221 18.3372C93.4924 17.2461 92.8857 16.236 91.8016 15.3074L102.565 9.75235H102.565ZM102.583 14.6455V34.706H99.0834L99.0658 16.3872L102.583 14.646V14.6455Z" fill="#041D38"/>
<path d="M112.604 9.75278H117.287C119.962 9.75278 121.788 10.5654 122.766 12.1905C123.438 13.0148 123.774 14.1583 123.774 15.621V28.9249C123.774 31.7459 122.389 33.6327 119.62 34.5843C119.09 34.6774 118.666 34.7237 118.347 34.7237H111.331C109.552 34.7237 108.037 33.7778 106.789 31.8854C106.341 31.0494 106.117 30.1961 106.117 29.3255V15.29C106.117 12.864 107.366 11.1284 109.864 10.0833C110.406 9.8628 111.319 9.75235 112.603 9.75235L112.604 9.75278ZM109.705 28.9946C109.705 30.0164 110.13 30.6955 110.978 31.0321C111.155 31.1135 111.402 31.1538 111.721 31.1538H117.995C118.914 31.1538 119.562 30.7826 119.939 30.0393C120.033 29.7608 120.08 29.5633 120.08 29.4472V15.0289C120.08 14.2977 119.568 13.7463 118.543 13.3747H111.65C110.519 13.3747 109.871 14.0365 109.706 15.3598V28.9946H109.705Z" fill="#041D38"/>
<path d="M133.812 9.75256H138.513C141.259 9.75256 143.109 10.6058 144.063 12.3124C144.687 13.125 145 14.2512 145 15.6905V16.9444H141.324V15.0984C141.065 13.9493 140.481 13.3745 139.574 13.3745H132.876C131.921 13.3745 131.297 13.8561 131.002 14.8199C130.967 15.0525 130.949 15.2725 130.949 15.4817V17.728L127.326 16.0738V15.1508C127.326 12.8755 128.551 11.1867 131.002 10.0835C131.626 9.86301 132.563 9.75256 133.812 9.75256H133.812ZM127.326 16.9444L141.536 23.6659C142.761 24.3511 143.639 25.0563 144.169 25.7818C144.699 26.5073 144.964 27.5728 144.964 28.9771C144.964 31.6123 143.692 33.4349 141.147 34.445C140.652 34.6191 140.122 34.7062 139.556 34.7062H132.734C130.425 34.7062 128.71 33.4757 127.591 31.0145C127.414 30.4224 127.326 29.8771 127.326 29.3777V27.6014H130.931V29.0468C130.931 30.0686 131.403 30.7477 132.345 31.0843C132.581 31.1306 134.873 31.154 139.22 31.154C140.14 31.154 140.781 30.7828 141.147 30.0395C141.241 29.7493 141.288 29.5518 141.288 29.4474V28.2632C141.123 27.6599 139.922 26.8469 137.683 25.8255L127.326 20.8453V16.9449V16.9444Z" fill="#041D38"/>
<path d="M86.2035 39.7211C86.1138 39.3187 85.9252 39.0137 85.6382 38.8058C85.3511 38.5979 84.9787 38.494 84.5215 38.494C83.9307 38.494 83.4559 38.7054 83.0963 39.1277C82.7371 39.55 82.5573 40.1209 82.5573 40.8394C82.5573 41.6711 82.7275 42.29 83.0677 42.6963C83.408 43.1026 83.9008 43.3057 84.5457 43.3057C84.9704 43.3057 85.3357 43.1671 85.6421 42.8895C85.9485 42.6118 86.1547 42.209 86.2607 41.6806H87.0489C86.9425 42.4395 86.6501 43.0181 86.171 43.4166C85.6918 43.8151 85.1093 44.0139 84.4231 44.0139C83.6036 44.0139 82.9481 43.7363 82.4571 43.181C81.9656 42.6257 81.7198 41.8547 81.7198 40.8676C81.7198 39.8805 81.9766 39.1636 82.4896 38.6127C83.0027 38.0613 83.6801 37.7858 84.5211 37.7858C85.2179 37.7858 85.7828 37.963 86.2158 38.3168C86.6488 38.6707 86.906 39.1389 86.9878 39.7211H86.2039H86.2035Z" fill="#1E1E1E"/>
<path d="M93.5781 40.9001C93.5781 41.7824 93.3196 42.5222 92.8022 43.1191C92.2847 43.7159 91.569 44.0144 90.6542 44.0144C89.7394 44.0144 89.0162 43.7159 88.5001 43.1191C87.984 42.5222 87.7263 41.7828 87.7263 40.9001C87.7263 40.0174 87.9844 39.2745 88.5001 38.6794C89.0162 38.0838 89.7341 37.7863 90.6542 37.7863C91.5743 37.7863 92.319 38.0895 92.8224 38.6954C93.3257 39.3018 93.5776 40.0364 93.5776 40.9001H93.5781ZM92.745 40.9001C92.745 40.2079 92.5591 39.634 92.1876 39.1779C91.8161 38.7218 91.3048 38.494 90.6542 38.494C90.0036 38.494 89.5028 38.7218 89.127 39.1779C88.7511 39.634 88.5634 40.2079 88.5634 40.9001C88.5634 41.5923 88.7537 42.193 89.1349 42.6383C89.516 43.0836 90.0225 43.3062 90.6538 43.3062C91.285 43.3062 91.7748 43.0888 92.1625 42.6543C92.5503 42.2199 92.7446 41.6351 92.7446 40.9001H92.745Z" fill="#1E1E1E"/>
<path d="M98.5559 37.9431H99.3397V43.8571H98.4372L95.3748 39.0774H95.3586V43.8571H94.5826V37.9431H95.534L98.5392 42.7189H98.5555V37.9431H98.5559Z" fill="#1E1E1E"/>
<path d="M104.232 39.673C104.215 39.2975 104.073 39.0029 103.805 38.7898C103.537 38.5767 103.183 38.4702 102.745 38.4702C102.308 38.4702 101.966 38.5594 101.729 38.7379C101.492 38.9163 101.373 39.1732 101.373 39.5084C101.373 39.6882 101.425 39.8424 101.529 39.971C101.632 40.0997 101.817 40.1949 102.084 40.2564L103.799 40.6428C104.262 40.742 104.605 40.9304 104.828 41.2081C105.051 41.4857 105.163 41.8244 105.163 42.2238C105.163 42.8085 104.945 43.2529 104.51 43.5574C104.074 43.8619 103.508 44.0139 102.811 44.0139C102.28 44.0139 101.861 43.9468 101.555 43.813C101.249 43.6787 100.978 43.4656 100.741 43.1732C100.504 42.8809 100.386 42.472 100.386 41.9461H101.145C101.145 42.3862 101.293 42.7267 101.59 42.9679C101.887 43.2092 102.291 43.33 102.803 43.33C103.315 43.33 103.684 43.2434 103.96 43.0706C104.237 42.8977 104.375 42.6517 104.375 42.3325C104.375 42.0427 104.293 41.8262 104.128 41.6828C103.963 41.5394 103.641 41.4125 103.162 41.3025L101.868 41.0049C101.438 40.9083 101.117 40.7403 100.904 40.4999C100.692 40.2599 100.586 39.9641 100.586 39.6128C100.586 39.0818 100.767 38.6447 101.131 38.3013C101.494 37.9578 102.001 37.7863 102.652 37.7863C103.387 37.7863 103.954 37.937 104.353 38.2389C104.751 38.5408 104.966 39.0185 104.996 39.673H104.232H104.232Z" fill="#1E1E1E"/>
<path d="M107.454 38.6507H105.432V37.9426H110.308V38.6507H108.267V43.8567H107.454V38.6507H107.454Z" fill="#1E1E1E"/>
<path d="M111.9 43.8571H111.088V37.9431H113.865C114.51 37.9431 114.998 38.0786 115.331 38.3493C115.663 38.6201 115.829 39.0146 115.829 39.5322C115.829 39.8727 115.762 40.1573 115.629 40.3851C115.495 40.6129 115.286 40.8009 115 40.9482C115.245 41.0365 115.422 41.1609 115.531 41.3202C115.64 41.4796 115.703 41.7274 115.719 42.0627L115.772 43.165C115.777 43.3473 115.807 43.4756 115.86 43.5492C115.913 43.6228 115.987 43.6813 116.082 43.7242V43.8571H115.078C115.026 43.7094 114.99 43.4855 114.968 43.1853C114.946 42.8852 114.935 42.614 114.935 42.3728C114.935 42.2519 114.924 42.1289 114.903 42.0024C114.881 41.8764 114.833 41.7625 114.76 41.6603C114.686 41.5585 114.579 41.4757 114.437 41.4129C114.295 41.3501 114.105 41.3185 113.866 41.3185H111.901V43.8571H111.9ZM111.9 40.6346H113.779C114.215 40.6346 114.527 40.5467 114.716 40.3712C114.905 40.1954 115 39.9429 115 39.6128C115 39.3126 114.918 39.0731 114.755 38.8947C114.592 38.7162 114.312 38.627 113.914 38.627H111.901V40.6346H111.9Z" fill="#1E1E1E"/>
<path d="M121.66 37.9431V41.7811C121.66 42.4356 121.45 42.9714 121.029 43.3885C120.608 43.8056 120.013 44.0139 119.242 44.0139C118.524 44.0139 117.96 43.8216 117.55 43.4366C117.14 43.0515 116.935 42.5361 116.935 41.8898V37.9431H117.736V41.6646C117.736 42.209 117.874 42.6188 118.15 42.8938C118.427 43.1689 118.796 43.3062 119.259 43.3062C119.755 43.3062 120.142 43.1689 120.421 42.8938C120.7 42.6188 120.84 42.2147 120.84 41.6806V37.9431H121.66H121.66Z" fill="#1E1E1E"/>
<path d="M124.408 38.6507H122.387V37.9426H127.262V38.6507H125.221V43.8567H124.408V38.6507H124.408Z" fill="#1E1E1E"/>
<path d="M133.216 40.9001C133.216 41.7824 132.958 42.5222 132.44 43.1191C131.923 43.7159 131.207 44.0144 130.292 44.0144C129.377 44.0144 128.654 43.7159 128.138 43.1191C127.622 42.5222 127.364 41.7828 127.364 40.9001C127.364 40.0174 127.622 39.2745 128.138 38.6794C128.654 38.0838 129.372 37.7863 130.292 37.7863C131.212 37.7863 131.957 38.0895 132.46 38.6954C132.964 39.3018 133.216 40.0364 133.216 40.9001H133.216ZM132.383 40.9001C132.383 40.2079 132.197 39.634 131.826 39.1779C131.454 38.7218 130.943 38.494 130.292 38.494C129.642 38.494 129.141 38.7218 128.765 39.1779C128.389 39.634 128.201 40.2079 128.201 40.9001C128.201 41.5923 128.392 42.193 128.773 42.6383C129.154 43.0836 129.66 43.3062 130.292 43.3062C130.923 43.3062 131.413 43.0888 131.801 42.6543C132.188 42.2199 132.383 41.6351 132.383 40.9001H132.383Z" fill="#1E1E1E"/>
<path d="M135.033 43.8571H134.221V37.9431H136.997C137.643 37.9431 138.131 38.0786 138.463 38.3493C138.795 38.6201 138.961 39.0146 138.961 39.5322C138.961 39.8727 138.895 40.1573 138.761 40.3851C138.628 40.6129 138.419 40.8009 138.133 40.9482C138.378 41.0365 138.555 41.1609 138.664 41.3202C138.773 41.4796 138.835 41.7274 138.852 42.0627L138.905 43.165C138.91 43.3473 138.939 43.4756 138.993 43.5492C139.046 43.6228 139.12 43.6813 139.215 43.7242V43.8571H138.211C138.159 43.7094 138.122 43.4855 138.1 43.1853C138.078 42.8852 138.068 42.614 138.068 42.3728C138.068 42.2519 138.057 42.1289 138.035 42.0024C138.013 41.8764 137.966 41.7625 137.892 41.6603C137.819 41.5585 137.711 41.4757 137.57 41.4129C137.428 41.3501 137.237 41.3185 136.998 41.3185H135.034V43.8571H135.033ZM135.033 40.6346H136.912C137.347 40.6346 137.659 40.5467 137.849 40.3712C138.038 40.1954 138.133 39.9429 138.133 39.6128C138.133 39.3126 138.051 39.0731 137.888 38.8947C137.724 38.7162 137.444 38.627 137.047 38.627H135.034V40.6346H135.033Z" fill="#1E1E1E"/>
<path d="M141.076 42.135L140.448 43.8571H139.615L141.873 37.9431H142.792L144.964 43.8571H144.078L143.486 42.135H141.077H141.076ZM143.191 41.4268L142.305 38.8236H142.289L141.325 41.4268H143.191Z" fill="#1E1E1E"/>
</svg>
