<svg width="202" height="69" viewBox="0 0 202 69" fill="none" xmlns="http://www.w3.org/2000/svg">
<g opacity="0.7">
<path d="M53.0243 12H68.4641C71.5912 12 73.8062 12.7323 75.1091 14.1969C76.6562 15.7756 77.4298 17.5656 77.4298 19.5676V24.4501C77.4298 27.6725 75.3448 30.0892 71.1756 31.7001L53 40.4147V35.0688C64.4492 29.3405 70.7441 26.1673 71.8847 25.5485C72.2591 25.2886 72.4468 24.7677 72.4468 23.9862V20.0315C72.4468 18.6974 71.9498 17.8018 70.9568 17.3464C70.6639 17.1673 70.2641 17.078 69.7597 17.078H58.0814L58.1057 31.2611L53 33.6771L53.0243 12ZM58.0814 39.3162V47.0058H53V41.8064L58.0814 39.3162ZM72.7883 32.2126C75.8826 33.8077 77.4298 35.996 77.4298 38.7795V47.0058H72.4213V39.2185C72.4213 38.1443 71.9242 37.3799 70.9313 36.9238L67.047 35.0688L72.7883 32.2126Z" fill="white"/>
<path d="M89.5234 12.0243H99.2219C102.283 12.0243 104.597 13.6194 106.16 16.809C106.535 17.7532 106.722 18.8681 106.722 20.1535V25.939C103.433 27.4855 101.739 28.2579 101.641 28.2579V19.3963C101.641 18.3386 100.99 17.5741 99.6868 17.1017C99.4425 17.0367 99.1982 17.004 98.954 17.004H90.0855C88.4242 17.004 87.4956 17.9561 87.3006 19.8602V35.2638C85.5085 35.8825 83.8477 37.1679 82.317 39.1207V19.5919C82.317 16.3858 83.9784 14.0183 87.3006 12.4882C88.0984 12.1791 88.8398 12.0243 89.5234 12.0243ZM106.722 27.1594V32.5787L91.2091 40.0485C88.652 41.1876 87.3735 42.1154 87.3735 42.8313C87.3249 43.1404 87.3 43.4337 87.3 43.7099V47.0052H82.3164V43.1969C82.3164 39.8767 84.5393 37.3544 88.9856 35.6293L106.722 27.1588L106.722 27.1594ZM106.722 33.8727V47.0058H101.641V36.3628L106.722 33.8727Z" fill="white"/>
<path d="M111.633 12.0486L127.097 20.0801C129.165 21.5939 130.2 23.563 130.2 25.9876V47.0059H125.533V26.3537C125.485 25.0841 124.588 24.0998 122.846 23.3997L111.633 17.59V12.0486ZM111.633 18.8347L116.519 21.2271V47.0053H111.633V18.8347ZM143.343 12.0237V17.6871L130.981 24.0585C130.802 22.529 129.963 21.113 128.465 19.8111L143.343 12.0237H143.343ZM143.367 18.8833V47.0053H138.53L138.506 21.3249L143.367 18.8839V18.8833Z" fill="white"/>
<path d="M157.218 12.0244H163.692C167.389 12.0244 169.914 13.1635 171.266 15.4417C172.194 16.5972 172.658 18.2002 172.658 20.2507V38.901C172.658 42.8557 170.744 45.5006 166.917 46.8347C166.184 46.9652 165.597 47.0302 165.157 47.0302H155.459C153 47.0302 150.906 45.7041 149.18 43.0512C148.561 41.8793 148.252 40.6831 148.252 39.4626V19.7868C148.252 16.3859 149.978 13.9528 153.431 12.4876C154.18 12.1786 155.443 12.0237 157.218 12.0237L157.218 12.0244ZM153.212 38.9987C153.212 40.4311 153.798 41.3832 154.971 41.855C155.215 41.9692 155.557 42.0256 155.997 42.0256H164.67C165.94 42.0256 166.836 41.5053 167.357 40.4633C167.487 40.0729 167.553 39.796 167.553 39.6332V19.4207C167.553 18.3957 166.844 17.6228 165.427 17.1018H155.9C154.336 17.1018 153.44 18.0296 153.212 19.8846V38.9987H153.212Z" fill="white"/>
<path d="M186.537 12.0243H193.035C196.83 12.0243 199.387 13.2205 200.706 15.6129C201.569 16.752 202.001 18.3307 202.001 20.3484V22.1063H196.92V19.5184C196.561 17.9075 195.755 17.1017 194.501 17.1017H185.242C183.923 17.1017 183.059 17.7769 182.652 19.128C182.604 19.454 182.579 19.7625 182.579 20.0558V23.2047L177.57 20.8858V19.5919C177.57 16.4022 179.264 14.0347 182.652 12.4882C183.515 12.1791 184.81 12.0243 186.536 12.0243H186.537ZM177.571 22.1063L197.213 31.5289C198.906 32.4894 200.12 33.478 200.853 34.495C201.586 35.5121 201.952 37.0058 201.952 38.9744C201.952 42.6686 200.193 45.2237 196.675 46.6397C195.991 46.8838 195.258 47.0058 194.476 47.0058H185.047C181.854 47.0058 179.484 45.2808 177.937 41.8307C177.693 41.0006 177.571 40.2361 177.571 39.536V37.0459H182.554V39.0721C182.554 40.5045 183.206 41.4566 184.509 41.9284C184.834 41.9934 188.002 42.0262 194.012 42.0262C195.283 42.0262 196.17 41.5058 196.675 40.4638C196.805 40.057 196.871 39.7801 196.871 39.6338V37.9737C196.642 37.1279 194.981 35.9882 191.887 34.5564L177.571 27.5748V22.1069V22.1063Z" fill="white"/>
<path d="M120.504 54.3693C120.38 53.8053 120.12 53.3778 119.723 53.0863C119.326 52.7949 118.811 52.6491 118.179 52.6491C117.363 52.6491 116.706 52.9455 116.209 53.5375C115.713 54.1295 115.464 54.9298 115.464 55.9372C115.464 57.103 115.699 57.9707 116.17 58.5402C116.64 59.1098 117.321 59.3946 118.213 59.3946C118.8 59.3946 119.305 59.2003 119.728 58.811C120.152 58.4218 120.437 57.8571 120.583 57.1163H121.673C121.526 58.1802 121.122 58.9914 120.459 59.55C119.797 60.1086 118.992 60.3873 118.043 60.3873C116.911 60.3873 116.004 59.9981 115.326 59.2197C114.646 58.4413 114.307 57.3604 114.307 55.9766C114.307 54.5928 114.662 53.5879 115.371 52.8155C116.08 52.0426 117.016 51.6564 118.179 51.6564C119.142 51.6564 119.923 51.9047 120.521 52.4008C121.12 52.8969 121.475 53.5533 121.588 54.3693H120.505H120.504Z" fill="#B3B6BA"/>
<path d="M130.698 56.0222C130.698 57.259 130.341 58.2961 129.626 59.1329C128.91 59.9696 127.921 60.3879 126.656 60.3879C125.392 60.3879 124.392 59.9696 123.679 59.1329C122.965 58.2961 122.609 57.2596 122.609 56.0222C122.609 54.7847 122.966 53.7433 123.679 52.909C124.392 52.0741 125.385 51.657 126.656 51.657C127.928 51.657 128.958 52.082 129.654 52.9315C130.349 53.7816 130.698 54.8114 130.698 56.0222H130.698ZM129.547 56.0222C129.547 55.0518 129.29 54.2473 128.776 53.6079C128.263 52.9685 127.556 52.6491 126.656 52.6491C125.757 52.6491 125.065 52.9685 124.545 53.6079C124.026 54.2473 123.766 55.0518 123.766 56.0222C123.766 56.9925 124.03 57.8347 124.556 58.4589C125.083 59.0831 125.783 59.3952 126.656 59.3952C127.529 59.3952 128.205 59.0904 128.741 58.4813C129.277 57.8723 129.546 57.0526 129.546 56.0222H129.547Z" fill="#B3B6BA"/>
<path d="M137.578 51.8768H138.662V60.1675H137.414L133.181 53.467H133.158V60.1675H132.086V51.8768H133.401L137.555 58.5718H137.578V51.8768H137.578Z" fill="#B3B6BA"/>
<path d="M145.424 54.302C145.401 53.7755 145.205 53.3626 144.834 53.0639C144.463 52.7651 143.975 52.6158 143.369 52.6158C142.764 52.6158 142.291 52.7408 141.964 52.991C141.636 53.2412 141.473 53.6012 141.473 54.0712C141.473 54.3232 141.545 54.5394 141.687 54.7197C141.83 54.9 142.086 55.0336 142.455 55.1199L144.825 55.6615C145.465 55.8005 145.939 56.0647 146.248 56.4539C146.557 56.8431 146.711 57.3179 146.711 57.8778C146.711 58.6975 146.41 59.3205 145.808 59.7473C145.206 60.1742 144.423 60.3873 143.46 60.3873C142.726 60.3873 142.147 60.2932 141.724 60.1056C141.301 59.9174 140.926 59.6186 140.598 59.2088C140.271 58.7989 140.107 58.2257 140.107 57.4886H141.157C141.157 58.1055 141.362 58.5827 141.772 58.9209C142.183 59.2592 142.741 59.4286 143.449 59.4286C144.157 59.4286 144.667 59.3071 145.049 59.0649C145.431 58.8226 145.622 58.4777 145.622 58.0302C145.622 57.624 145.508 57.3204 145.281 57.1194C145.053 56.9184 144.608 56.7405 143.946 56.5862L142.157 56.1691C141.562 56.0337 141.118 55.7981 140.824 55.4611C140.531 55.1247 140.384 54.71 140.384 54.2176C140.384 53.4731 140.635 52.8605 141.137 52.3789C141.64 51.8974 142.341 51.657 143.24 51.657C144.256 51.657 145.04 51.8683 145.591 52.2915C146.142 52.7147 146.439 53.3845 146.48 54.302H145.425H145.424Z" fill="#B3B6BA"/>
<path d="M149.878 52.8689H147.084V51.8761H153.824V52.8689H151.002V60.1668H149.879V52.8689H149.878Z" fill="#B3B6BA"/>
<path d="M156.023 60.1675H154.9V51.8768H158.738C159.631 51.8768 160.306 52.0668 160.765 52.4463C161.224 52.8258 161.454 53.379 161.454 54.1046C161.454 54.5819 161.361 54.9808 161.177 55.3002C160.992 55.6196 160.703 55.8831 160.308 56.0895C160.647 56.2134 160.891 56.3877 161.042 56.6111C161.193 56.8346 161.279 57.1819 161.302 57.6519L161.375 59.1972C161.382 59.4528 161.423 59.6326 161.497 59.7358C161.57 59.839 161.672 59.921 161.804 59.9811V60.1675H160.416C160.344 59.9605 160.294 59.6465 160.263 59.2257C160.233 58.8049 160.218 58.4248 160.218 58.0866C160.218 57.9172 160.203 57.7448 160.173 57.5675C160.143 57.3908 160.077 57.2311 159.976 57.0878C159.874 56.9451 159.725 56.8291 159.53 56.7411C159.334 56.653 159.07 56.6087 158.74 56.6087H156.025V60.1675H156.023ZM156.023 55.6499H158.62C159.222 55.6499 159.654 55.5267 159.916 55.2807C160.177 55.0342 160.308 54.6802 160.308 54.2175C160.308 53.7967 160.195 53.461 159.97 53.2108C159.744 52.9606 159.356 52.8355 158.807 52.8355H156.025V55.6499H156.023Z" fill="#B3B6BA"/>
<path d="M169.515 51.8768V57.2572C169.515 58.1747 169.225 58.9258 168.643 59.5105C168.062 60.0953 167.239 60.3873 166.173 60.3873C165.18 60.3873 164.4 60.1177 163.834 59.5779C163.268 59.0381 162.984 58.3155 162.984 57.4096V51.8768H164.091V57.0939C164.091 57.8571 164.282 58.4315 164.664 58.8171C165.046 59.2027 165.557 59.3951 166.197 59.3951C166.881 59.3951 167.417 59.2027 167.803 58.8171C168.189 58.4315 168.381 57.865 168.381 57.1163V51.8768H169.516H169.515Z" fill="#B3B6BA"/>
<path d="M173.314 52.8689H170.52V51.8761H177.259V52.8689H174.437V60.1668H173.314V52.8689H173.314Z" fill="#B3B6BA"/>
<path d="M185.489 56.0222C185.489 57.259 185.132 58.2961 184.417 59.1329C183.701 59.9696 182.712 60.3879 181.448 60.3879C180.183 60.3879 179.183 59.9696 178.47 59.1329C177.756 58.2961 177.4 57.2596 177.4 56.0222C177.4 54.7847 177.757 53.7433 178.47 52.909C179.183 52.0741 180.176 51.657 181.448 51.657C182.719 51.657 183.749 52.082 184.445 52.9315C185.14 53.7816 185.489 54.8114 185.489 56.0222H185.489ZM184.338 56.0222C184.338 55.0518 184.081 54.2473 183.567 53.6079C183.054 52.9685 182.347 52.6491 181.448 52.6491C180.548 52.6491 179.856 52.9685 179.336 53.6079C178.817 54.2473 178.557 55.0518 178.557 56.0222C178.557 56.9925 178.821 57.8347 179.347 58.4589C179.874 59.0831 180.574 59.3952 181.447 59.3952C182.32 59.3952 182.996 59.0904 183.532 58.4813C184.068 57.8723 184.337 57.0526 184.337 56.0222H184.338Z" fill="#B3B6BA"/>
<path d="M188 60.1675H186.877V51.8768H190.715C191.607 51.8768 192.282 52.0668 192.742 52.4463C193.2 52.8258 193.43 53.379 193.43 54.1046C193.43 54.5819 193.338 54.9808 193.154 55.3002C192.969 55.6196 192.68 55.8831 192.285 56.0895C192.623 56.2134 192.868 56.3877 193.019 56.6111C193.169 56.8346 193.256 57.1819 193.278 57.6519L193.352 59.1972C193.359 59.4528 193.4 59.6326 193.473 59.7358C193.547 59.839 193.649 59.921 193.781 59.9811V60.1675H192.392C192.32 59.9605 192.27 59.6465 192.24 59.2257C192.209 58.8049 192.195 58.4248 192.195 58.0866C192.195 57.9172 192.18 57.7448 192.15 57.5675C192.119 57.3908 192.054 57.2311 191.952 57.0878C191.851 56.9451 191.702 56.8291 191.506 56.7411C191.311 56.653 191.047 56.6087 190.716 56.6087H188.001V60.1675H188ZM188 55.6499H190.597C191.199 55.6499 191.63 55.5267 191.892 55.2807C192.153 55.0342 192.285 54.6802 192.285 54.2175C192.285 53.7967 192.172 53.461 191.946 53.2108C191.72 52.9606 191.333 52.8355 190.784 52.8355H188.001V55.6499H188Z" fill="#B3B6BA"/>
<path d="M196.353 57.7533L195.484 60.1675H194.332L197.454 51.8768H198.724L201.727 60.1675H200.502L199.683 57.7533H196.353H196.353ZM199.276 56.7605L198.051 53.1112H198.029L196.696 56.7605H199.276Z" fill="#B3B6BA"/>
<path d="M2.2659 67.9394L20.4471 61.0035C20.8183 60.8616 21.0651 60.4938 21.0651 60.0818V1L1.6517 7.55177C1.26305 7.68261 1 8.06016 1 8.48522V67.0176C1 67.6998 1.65107 68.1737 2.2659 67.9394Z" stroke="white" stroke-miterlimit="10"/>
<path d="M38.9906 38.5658L39 9.06225C38.9726 8.5589 38.604 8.10243 38.0858 7.92792L21.045 1.07181L20.9964 32.1108C21.0163 32.6272 21.3955 33.098 21.93 33.2693L37.4166 39.639C38.2385 39.9027 39.0343 39.3603 38.9906 38.5658Z" stroke="white" stroke-miterlimit="10"/>
<path d="M22.8426 54.5245L8.8957 49.1681C8.61121 49.0584 8.42134 48.7744 8.42134 48.4564V16.9823C8.42134 16.4678 8.90006 16.1028 9.36694 16.2615L23.3139 21.0002C23.612 21.1014 23.8137 21.3926 23.8137 21.721V53.8128C23.8137 54.3397 23.3139 54.7053 22.8426 54.5245Z" stroke="white" stroke-miterlimit="10"/>
<path d="M38.9906 61.4021L39 46.5505C38.9726 46.047 38.604 45.5904 38.0857 45.4158L21.045 38.5573L20.9964 54.9443C21.0163 55.4608 21.3955 55.9318 21.93 56.1031L37.4172 62.4749C38.2391 62.7388 39.0349 62.1961 38.9913 61.4015L38.9906 61.4021Z" stroke="white" stroke-miterlimit="10"/>
<path d="M15.5125 57.8272L29.5217 52.4827C29.8075 52.3733 29.9982 52.0899 29.9982 51.7726V7.28607C29.9982 6.77272 29.5173 6.40856 29.0484 6.56686L15.0392 11.2951C14.7397 11.3961 14.5371 11.6866 14.5371 12.0143V57.1178C14.5371 57.6435 15.0392 58.0083 15.5125 57.8279V57.8272Z" stroke="white" stroke-miterlimit="10"/>
</g>
</svg>
