<svg width="40" height="69" viewBox="0 0 40 69" fill="none" xmlns="http://www.w3.org/2000/svg">
<path d="M2.2659 67.9394L20.4471 61.0035C20.8183 60.8616 21.0651 60.4938 21.0651 60.0818V1L1.6517 7.55177C1.26305 7.68261 1 8.06016 1 8.48522V67.0176C1 67.6998 1.65107 68.1737 2.2659 67.9394Z" stroke="white" stroke-miterlimit="10"/>
<path d="M38.9906 38.5658L39 9.06225C38.9726 8.5589 38.604 8.10243 38.0858 7.92792L21.045 1.07181L20.9964 32.1108C21.0163 32.6272 21.3955 33.098 21.93 33.2693L37.4166 39.639C38.2385 39.9027 39.0343 39.3603 38.9906 38.5658Z" stroke="white" stroke-miterlimit="10"/>
<path d="M22.8426 54.5245L8.8957 49.1681C8.61121 49.0584 8.42134 48.7744 8.42134 48.4564V16.9823C8.42134 16.4678 8.90006 16.1028 9.36694 16.2615L23.3139 21.0002C23.612 21.1014 23.8137 21.3926 23.8137 21.721V53.8128C23.8137 54.3397 23.3139 54.7053 22.8426 54.5245Z" stroke="white" stroke-miterlimit="10"/>
<path d="M38.9906 61.4021L39 46.5505C38.9726 46.047 38.604 45.5904 38.0857 45.4158L21.045 38.5573L20.9964 54.9443C21.0163 55.4608 21.3955 55.9318 21.93 56.1031L37.4172 62.4749C38.2391 62.7388 39.0349 62.1961 38.9913 61.4015L38.9906 61.4021Z" stroke="white" stroke-miterlimit="10"/>
<path d="M15.5125 57.8272L29.5217 52.4827C29.8075 52.3733 29.9982 52.0899 29.9982 51.7726V7.28607C29.9982 6.77272 29.5173 6.40856 29.0484 6.56686L15.0392 11.2951C14.7397 11.3961 14.5371 11.6866 14.5371 12.0143V57.1178C14.5371 57.6435 15.0392 58.0083 15.5125 57.8279V57.8272Z" stroke="white" stroke-miterlimit="10"/>
</svg>
